<svg xmlns="http://www.w3.org/2000/svg" xmlns:xlink="http://www.w3.org/1999/xlink" width="1920" zoomAndPan="magnify" viewBox="0 0 1440 809.999993" height="1080" preserveAspectRatio="xMidYMid meet" version="1.2"><defs/><g id="8a537eae62"><g style="fill:#0a2a5c;fill-opacity:1;"><g transform="translate(114.082031, 460.874997)"><path style="stroke:none" d="M 108.03125 -113.203125 L 108.03125 0 L 80.46875 0 L 80.46875 -46.59375 L 37.578125 -46.59375 L 37.578125 0 L 10 0 L 10 -113.203125 L 37.578125 -113.203125 L 37.578125 -68.859375 L 80.46875 -68.859375 L 80.46875 -113.203125 Z M 108.03125 -113.203125 "/></g></g><g style="fill:#0a2a5c;fill-opacity:1;"><g transform="translate(231.955724, 460.874997)"><path style="stroke:none" d="M 4.515625 -45.15625 C 4.515625 -54.394531 6.257812 -62.507812 9.75 -69.5 C 13.25 -76.488281 18.007812 -81.863281 24.03125 -85.625 C 30.050781 -89.382812 36.769531 -91.265625 44.1875 -91.265625 C 50.53125 -91.265625 56.09375 -89.972656 60.875 -87.390625 C 65.65625 -84.816406 69.335938 -81.429688 71.921875 -77.234375 L 71.921875 -89.984375 L 99.484375 -89.984375 L 99.484375 0 L 71.921875 0 L 71.921875 -12.734375 C 69.234375 -8.546875 65.492188 -5.160156 60.703125 -2.578125 C 55.921875 0.00390625 50.359375 1.296875 44.015625 1.296875 C 36.710938 1.296875 30.050781 -0.609375 24.03125 -4.421875 C 18.007812 -8.242188 13.25 -13.675781 9.75 -20.71875 C 6.257812 -27.757812 4.515625 -35.90625 4.515625 -45.15625 Z M 71.921875 -44.984375 C 71.921875 -51.867188 70.007812 -57.296875 66.1875 -61.265625 C 62.375 -65.242188 57.726562 -67.234375 52.25 -67.234375 C 46.757812 -67.234375 42.109375 -65.269531 38.296875 -61.34375 C 34.484375 -57.425781 32.578125 -52.03125 32.578125 -45.15625 C 32.578125 -38.269531 34.484375 -32.8125 38.296875 -28.78125 C 42.109375 -24.75 46.757812 -22.734375 52.25 -22.734375 C 57.726562 -22.734375 62.375 -24.722656 66.1875 -28.703125 C 70.007812 -32.679688 71.921875 -38.109375 71.921875 -44.984375 Z M 71.921875 -44.984375 "/></g></g><g style="fill:#0a2a5c;fill-opacity:1;"><g transform="translate(341.444424, 460.874997)"><path style="stroke:none" d="M 37.578125 -77.234375 C 40.265625 -81.429688 43.972656 -84.816406 48.703125 -87.390625 C 53.429688 -89.972656 58.96875 -91.265625 65.3125 -91.265625 C 72.726562 -91.265625 79.445312 -89.382812 85.46875 -85.625 C 91.488281 -81.863281 96.242188 -76.488281 99.734375 -69.5 C 103.222656 -62.507812 104.96875 -54.394531 104.96875 -45.15625 C 104.96875 -35.90625 103.222656 -27.757812 99.734375 -20.71875 C 96.242188 -13.675781 91.488281 -8.242188 85.46875 -4.421875 C 79.445312 -0.609375 72.726562 1.296875 65.3125 1.296875 C 59.070312 1.296875 53.5625 0.00390625 48.78125 -2.578125 C 44 -5.160156 40.265625 -8.492188 37.578125 -12.578125 L 37.578125 42.890625 L 10 42.890625 L 10 -89.984375 L 37.578125 -89.984375 Z M 76.921875 -45.15625 C 76.921875 -52.03125 75.007812 -57.425781 71.1875 -61.34375 C 67.375 -65.269531 62.671875 -67.234375 57.078125 -67.234375 C 51.597656 -67.234375 46.945312 -65.242188 43.125 -61.265625 C 39.3125 -57.296875 37.40625 -51.867188 37.40625 -44.984375 C 37.40625 -38.109375 39.3125 -32.679688 43.125 -28.703125 C 46.945312 -24.722656 51.597656 -22.734375 57.078125 -22.734375 C 62.566406 -22.734375 67.242188 -24.75 71.109375 -28.78125 C 74.984375 -32.8125 76.921875 -38.269531 76.921875 -45.15625 Z M 76.921875 -45.15625 "/></g></g><g style="fill:#0a2a5c;fill-opacity:1;"><g transform="translate(450.933134, 460.874997)"><path style="stroke:none" d="M 37.578125 -77.234375 C 40.265625 -81.429688 43.972656 -84.816406 48.703125 -87.390625 C 53.429688 -89.972656 58.96875 -91.265625 65.3125 -91.265625 C 72.726562 -91.265625 79.445312 -89.382812 85.46875 -85.625 C 91.488281 -81.863281 96.242188 -76.488281 99.734375 -69.5 C 103.222656 -62.507812 104.96875 -54.394531 104.96875 -45.15625 C 104.96875 -35.90625 103.222656 -27.757812 99.734375 -20.71875 C 96.242188 -13.675781 91.488281 -8.242188 85.46875 -4.421875 C 79.445312 -0.609375 72.726562 1.296875 65.3125 1.296875 C 59.070312 1.296875 53.5625 0.00390625 48.78125 -2.578125 C 44 -5.160156 40.265625 -8.492188 37.578125 -12.578125 L 37.578125 42.890625 L 10 42.890625 L 10 -89.984375 L 37.578125 -89.984375 Z M 76.921875 -45.15625 C 76.921875 -52.03125 75.007812 -57.425781 71.1875 -61.34375 C 67.375 -65.269531 62.671875 -67.234375 57.078125 -67.234375 C 51.597656 -67.234375 46.945312 -65.242188 43.125 -61.265625 C 39.3125 -57.296875 37.40625 -51.867188 37.40625 -44.984375 C 37.40625 -38.109375 39.3125 -32.679688 43.125 -28.703125 C 46.945312 -24.722656 51.597656 -22.734375 57.078125 -22.734375 C 62.566406 -22.734375 67.242188 -24.75 71.109375 -28.78125 C 74.984375 -32.8125 76.921875 -38.269531 76.921875 -45.15625 Z M 76.921875 -45.15625 "/></g></g><g style="fill:#0a2a5c;fill-opacity:1;"><g transform="translate(560.421822, 460.874997)"><path style="stroke:none" d="M 101.90625 -89.984375 L 45.46875 42.734375 L 15.796875 42.734375 L 36.4375 -3.0625 L -0.15625 -89.984375 L 30.640625 -89.984375 L 51.4375 -33.703125 L 72.078125 -89.984375 Z M 101.90625 -89.984375 "/></g></g><g style="fill:#0a2a5c;fill-opacity:1;"><g transform="translate(662.331775, 460.874997)"><path style="stroke:none" d=""/></g></g><g style="fill:#0a2a5c;fill-opacity:1;"><g transform="translate(696.516786, 460.874997)"><path style="stroke:none" d="M 67.71875 0 L 44.1875 -42.734375 L 37.578125 -42.734375 L 37.578125 0 L 10 0 L 10 -113.203125 L 56.28125 -113.203125 C 65.195312 -113.203125 72.800781 -111.640625 79.09375 -108.515625 C 85.382812 -105.398438 90.085938 -101.128906 93.203125 -95.703125 C 96.316406 -90.273438 97.875 -84.226562 97.875 -77.5625 C 97.875 -70.039062 95.75 -63.320312 91.5 -57.40625 C 87.257812 -51.488281 81 -47.296875 72.71875 -44.828125 L 98.84375 0 Z M 37.578125 -62.25 L 54.65625 -62.25 C 59.71875 -62.25 63.507812 -63.484375 66.03125 -65.953125 C 68.5625 -68.421875 69.828125 -71.914062 69.828125 -76.4375 C 69.828125 -80.726562 68.5625 -84.109375 66.03125 -86.578125 C 63.507812 -89.054688 59.71875 -90.296875 54.65625 -90.296875 L 37.578125 -90.296875 Z M 37.578125 -62.25 "/></g></g><g style="fill:#0a2a5c;fill-opacity:1;"><g transform="translate(801.65173, 460.874997)"><path style="stroke:none" d="M 50.953125 1.296875 C 42.140625 1.296875 34.210938 -0.582031 27.171875 -4.34375 C 20.128906 -8.113281 14.59375 -13.488281 10.5625 -20.46875 C 6.53125 -27.457031 4.515625 -35.628906 4.515625 -44.984375 C 4.515625 -54.234375 6.554688 -62.378906 10.640625 -69.421875 C 14.722656 -76.460938 20.3125 -81.863281 27.40625 -85.625 C 34.507812 -89.382812 42.46875 -91.265625 51.28125 -91.265625 C 60.09375 -91.265625 68.046875 -89.382812 75.140625 -85.625 C 82.234375 -81.863281 87.820312 -76.460938 91.90625 -69.421875 C 96 -62.378906 98.046875 -54.234375 98.046875 -44.984375 C 98.046875 -35.742188 95.972656 -27.601562 91.828125 -20.5625 C 87.691406 -13.519531 82.046875 -8.113281 74.890625 -4.34375 C 67.742188 -0.582031 59.765625 1.296875 50.953125 1.296875 Z M 50.953125 -22.578125 C 56.222656 -22.578125 60.710938 -24.507812 64.421875 -28.375 C 68.128906 -32.25 69.984375 -37.785156 69.984375 -44.984375 C 69.984375 -52.191406 68.179688 -57.726562 64.578125 -61.59375 C 60.972656 -65.46875 56.539062 -67.40625 51.28125 -67.40625 C 45.90625 -67.40625 41.441406 -65.492188 37.890625 -61.671875 C 34.347656 -57.859375 32.578125 -52.296875 32.578125 -44.984375 C 32.578125 -37.785156 34.320312 -32.25 37.8125 -28.375 C 41.300781 -24.507812 45.679688 -22.578125 50.953125 -22.578125 Z M 50.953125 -22.578125 "/></g></g><g style="fill:#0a2a5c;fill-opacity:1;"><g transform="translate(904.367941, 460.874997)"><path style="stroke:none" d="M 50.953125 1.296875 C 42.140625 1.296875 34.210938 -0.582031 27.171875 -4.34375 C 20.128906 -8.113281 14.59375 -13.488281 10.5625 -20.46875 C 6.53125 -27.457031 4.515625 -35.628906 4.515625 -44.984375 C 4.515625 -54.234375 6.554688 -62.378906 10.640625 -69.421875 C 14.722656 -76.460938 20.3125 -81.863281 27.40625 -85.625 C 34.507812 -89.382812 42.46875 -91.265625 51.28125 -91.265625 C 60.09375 -91.265625 68.046875 -89.382812 75.140625 -85.625 C 82.234375 -81.863281 87.820312 -76.460938 91.90625 -69.421875 C 96 -62.378906 98.046875 -54.234375 98.046875 -44.984375 C 98.046875 -35.742188 95.972656 -27.601562 91.828125 -20.5625 C 87.691406 -13.519531 82.046875 -8.113281 74.890625 -4.34375 C 67.742188 -0.582031 59.765625 1.296875 50.953125 1.296875 Z M 50.953125 -22.578125 C 56.222656 -22.578125 60.710938 -24.507812 64.421875 -28.375 C 68.128906 -32.25 69.984375 -37.785156 69.984375 -44.984375 C 69.984375 -52.191406 68.179688 -57.726562 64.578125 -61.59375 C 60.972656 -65.46875 56.539062 -67.40625 51.28125 -67.40625 C 45.90625 -67.40625 41.441406 -65.492188 37.890625 -61.671875 C 34.347656 -57.859375 32.578125 -52.296875 32.578125 -44.984375 C 32.578125 -37.785156 34.320312 -32.25 37.8125 -28.375 C 41.300781 -24.507812 45.679688 -22.578125 50.953125 -22.578125 Z M 50.953125 -22.578125 "/></g></g><g style="fill:#0a2a5c;fill-opacity:1;"><g transform="translate(1007.084153, 460.874997)"><path style="stroke:none" d="M 124.8125 -90.9375 C 135.988281 -90.9375 144.878906 -87.550781 151.484375 -80.78125 C 158.097656 -74.007812 161.40625 -64.601562 161.40625 -52.5625 L 161.40625 0 L 134 0 L 134 -48.859375 C 134 -54.660156 132.46875 -59.144531 129.40625 -62.3125 C 126.34375 -65.488281 122.125 -67.078125 116.75 -67.078125 C 111.375 -67.078125 107.148438 -65.488281 104.078125 -62.3125 C 101.015625 -59.144531 99.484375 -54.660156 99.484375 -48.859375 L 99.484375 0 L 72.078125 0 L 72.078125 -48.859375 C 72.078125 -54.660156 70.546875 -59.144531 67.484375 -62.3125 C 64.421875 -65.488281 60.203125 -67.078125 54.828125 -67.078125 C 49.453125 -67.078125 45.234375 -65.488281 42.171875 -62.3125 C 39.109375 -59.144531 37.578125 -54.660156 37.578125 -48.859375 L 37.578125 0 L 10 0 L 10 -89.984375 L 37.578125 -89.984375 L 37.578125 -78.6875 C 40.367188 -82.445312 44.019531 -85.425781 48.53125 -87.625 C 53.050781 -89.832031 58.160156 -90.9375 63.859375 -90.9375 C 70.628906 -90.9375 76.675781 -89.484375 82 -86.578125 C 87.320312 -83.679688 91.488281 -79.546875 94.5 -74.171875 C 97.613281 -79.117188 101.859375 -83.148438 107.234375 -86.265625 C 112.609375 -89.378906 118.46875 -90.9375 124.8125 -90.9375 Z M 124.8125 -90.9375 "/></g></g><g style="fill:#0a2a5c;fill-opacity:1;"><g transform="translate(1177.847752, 460.874997)"><path style="stroke:none" d="M 23.859375 -99.328125 C 19.023438 -99.328125 15.078125 -100.75 12.015625 -103.59375 C 8.953125 -106.445312 7.421875 -109.972656 7.421875 -114.171875 C 7.421875 -118.460938 8.953125 -122.03125 12.015625 -124.875 C 15.078125 -127.726562 19.023438 -129.15625 23.859375 -129.15625 C 28.585938 -129.15625 32.484375 -127.726562 35.546875 -124.875 C 38.617188 -122.03125 40.15625 -118.460938 40.15625 -114.171875 C 40.15625 -109.972656 38.617188 -106.445312 35.546875 -103.59375 C 32.484375 -100.75 28.585938 -99.328125 23.859375 -99.328125 Z M 37.578125 -89.984375 L 37.578125 0 L 10 0 L 10 -89.984375 Z M 37.578125 -89.984375 "/></g></g><g style="fill:#0a2a5c;fill-opacity:1;"><g transform="translate(1225.416536, 460.874997)"><path style="stroke:none" d="M 94.8125 -46.4375 C 94.8125 -43.851562 94.648438 -41.164062 94.328125 -38.375 L 31.921875 -38.375 C 32.359375 -32.789062 34.160156 -28.519531 37.328125 -25.5625 C 40.503906 -22.601562 44.398438 -21.125 49.015625 -21.125 C 55.898438 -21.125 60.6875 -24.023438 63.375 -29.828125 L 92.71875 -29.828125 C 91.21875 -23.921875 88.503906 -18.597656 84.578125 -13.859375 C 80.648438 -9.128906 75.726562 -5.421875 69.8125 -2.734375 C 63.90625 -0.046875 57.296875 1.296875 49.984375 1.296875 C 41.171875 1.296875 33.320312 -0.582031 26.4375 -4.34375 C 19.5625 -8.113281 14.1875 -13.488281 10.3125 -20.46875 C 6.445312 -27.457031 4.515625 -35.628906 4.515625 -44.984375 C 4.515625 -54.335938 6.421875 -62.507812 10.234375 -69.5 C 14.054688 -76.488281 19.40625 -81.863281 26.28125 -85.625 C 33.164062 -89.382812 41.066406 -91.265625 49.984375 -91.265625 C 58.691406 -91.265625 66.429688 -89.4375 73.203125 -85.78125 C 79.972656 -82.125 85.265625 -76.910156 89.078125 -70.140625 C 92.898438 -63.367188 94.8125 -55.46875 94.8125 -46.4375 Z M 66.59375 -53.703125 C 66.59375 -58.429688 64.976562 -62.191406 61.75 -64.984375 C 58.53125 -67.773438 54.503906 -69.171875 49.671875 -69.171875 C 45.046875 -69.171875 41.144531 -67.828125 37.96875 -65.140625 C 34.800781 -62.453125 32.84375 -58.640625 32.09375 -53.703125 Z M 66.59375 -53.703125 "/></g></g><g style="fill:#0a2a5c;fill-opacity:1;"><g transform="translate(1324.757751, 460.874997)"><path style="stroke:none" d=""/></g></g></g></svg>