<?xml version="1.0" encoding="utf-8"?>
<svg version="1.1" xmlns="http://www.w3.org/2000/svg" x="0px" y="0px"
	 viewBox="0 0 1100 190" xml:space="preserve">
<style type="text/css">
	.st0{fill:#FFDC30;}
	svg{fill:#ffffff;}
</style>
<g>
	<!-- Icon group: scaled down and positioned left -->
	<g transform="translate(5,0) scale(0.80) translate(-257,0)">
		<g>
			<rect x="517.1" y="56.8" width="7.3" height="60.6"/>
			<path d="M520.7,104.4L520.7,104.4c5.6,0,10.1,4.5,10.1,10.1v32.9h-20.2v-32.9C510.6,108.9,515.1,104.4,520.7,104.4"/>
			<path class="st0" d="M526.5,100.3c0,3.2-2.6,5.7-5.7,5.7c-3.2,0-5.7-2.6-5.7-5.7c0-3.2,2.6-5.7,5.7-5.7
				C523.9,94.6,526.5,97.1,526.5,100.3"/>
			<path d="M537,57.1l-140-52.4l-140,52.4L302,70.6c0,14.9,0,45.8,0,45.8l95.1-46.4l95.1,46.4c0,0,0-30.9,0-45.8L537,57.1z"/>
		</g>
		<polygon class="st0" points="486,127.8 394.6,85.1 308.1,128.3 308.1,235.3 364.7,235.3 364.7,135.5 429.4,135.5 429.4,235.3
			486,235.3 		"/>
		<path d="M389.3,186.4c0,4.3-3.5,7.8-7.8,7.8c-4.3,0-7.8-3.5-7.8-7.8c0-4.3,3.5-7.8,7.8-7.8C385.8,178.6,389.3,182.1,389.3,186.4"/>
	</g>
	<!-- Text group: repositioned to the right of icon -->
	<g transform="translate(275,-209)">
		<polygon points="60.2,355.4 60.2,322.9 20.7,322.9 20.7,355.4 5.6,355.4 5.6,275 20.7,275 20.7,308.9 60.2,308.9 60.2,275
			75.2,275 75.2,355.4 		"/>
		<path d="M133.3,298.7h13.4v56.6h-13.2l-0.7-8.3c-3.2,6.7-12,9.9-18.4,10c-16.8,0.1-29.1-10.2-29.1-30.1c0-19.5,13-29.7,29.5-29.6
			c7.6,0,14.8,3.6,18,9.2L133.3,298.7z M99.3,326.9c0,10.8,7.5,17.2,16.8,17.2c22,0,22-34.3,0-34.3
			C106.8,309.8,99.3,316.1,99.3,326.9"/>
		<path d="M158.6,378.9v-80.2h13.1l0.9,7.8c4.4-6.3,11.9-9.1,18.4-9.1c17.4,0,29,13,29,29.6c0,16.5-10.4,29.6-28.6,29.6
			c-6,0-14.8-1.8-18.8-8v30.3H158.6z M206,327c0-8.8-6-16.1-16.1-16.1c-10.1,0-16.1,7.2-16.1,16.1c0,8.8,6.5,16.1,16.1,16.1
			S206,335.9,206,327"/>
		<path d="M230.3,378.9v-80.2h13.1l0.9,7.8c4.4-6.3,11.9-9.1,18.4-9.1c17.4,0,29,13,29,29.6c0,16.5-10.4,29.6-28.6,29.6
			c-6,0-14.8-1.8-18.8-8v30.3H230.3z M277.7,327c0-8.8-6-16.1-16.1-16.1c-10.1,0-16.1,7.2-16.1,16.1c0,8.8,6.5,16.1,16.1,16.1
			C271.2,343.1,277.7,335.9,277.7,327"/>
		<polygon points="359.1,298.7 324.5,378.9 309.1,378.9 319.7,354.3 297.1,298.7 313.4,298.7 322,323.1 327.4,339.1 333.2,323.5
			343.6,298.7 		"/>
		<path d="M461.9,355.3h-18l-23.4-26.9h-14.6v26.9h-15.2v-80.4c12.7,0,25.5,0.1,38.2,0.1c18.9,0.1,28.9,12.7,28.9,26.6
			c0,11-5.1,22.1-20.3,25.2l24.3,27.4V355.3z M405.9,289v25.7H429c9.6,0,13.8-6.4,13.8-12.9c0-6.4-4.2-12.9-13.8-12.9H405.9z"/>
		<path class="st0" d="M527.4,327c0,16.4-11.2,29.6-29.6,29.6c-18.4,0-29.5-13.3-29.5-29.6c0-16.2,11.3-29.6,29.4-29.6
			C515.8,297.4,527.4,310.8,527.4,327 M482.4,327c0,8.6,5.2,16.7,15.4,16.7c10.3,0,15.4-8.1,15.4-16.7c0-8.5-6-16.8-15.4-16.8
			C487.7,310.2,482.4,318.5,482.4,327"/>
		<path d="M640.3,355.3V325c0-7.5-3.9-14.2-11.6-14.2c-7.6,0-12,6.8-12,14.2v30.3h-14v-56.7h13l1,6.9c3-5.7,9.5-7.8,14.9-7.8
			c6.8,0,13.5,2.8,16.8,10.6c5.1-8,11.6-10.3,18.9-10.3c16.1,0,24,9.9,24,26.9v30.5h-14v-30.5c0-7.5-3.1-13.8-10.7-13.8
			c-7.6,0-12.3,6.5-12.3,14v30.3H640.3z"/>
		<path d="M720.8,282.7c0,10.9-16.5,10.9-16.5,0C704.3,271.8,720.8,271.8,720.8,282.7 M705.5,355.3h14v-56.8h-14V355.3z"/>
		<path d="M744.1,332c0.9,7,7,12,16.9,12c5.2,0,11.9-1.9,15.1-5.3l9,8.8c-6,6.2-15.7,9.2-24.3,9.2c-19.5,0-31.1-12.1-31.1-30.2
			c0-17.2,11.7-29.6,30.1-29.6c18.9,0,30.8,11.7,28.6,35H744.1z M774.9,320.4c-0.9-7.3-6.7-11-14.7-11c-7.6,0-13.8,3.7-15.8,11
			H774.9z"/>
		<path class="st0" d="M593.5,327c0,16.4-11.2,29.6-29.6,29.6c-18.4,0-29.5-13.3-29.5-29.6c0-16.2,11.3-29.6,29.4-29.6
			C581.9,297.4,593.5,310.8,593.5,327 M548.4,327c0,8.6,5.2,16.7,15.4,16.7c10.3,0,15.4-8.1,15.4-16.7c0-8.5-6-16.8-15.4-16.8
			C553.7,310.2,548.4,318.5,548.4,327"/>
	</g>
</g>
</svg>
